<?xml version="1.0" encoding="utf-8"?>
<!-- Generator: Adobe Illustrator 20.1.0, SVG Export Plug-In . SVG Version: 6.00 Build 0)  -->
<svg version="1.1" id="Layer_1" xmlns="http://www.w3.org/2000/svg" xmlns:xlink="http://www.w3.org/1999/xlink" x="0px" y="0px"
	 viewBox="0 0 100 63.7" style="enable-background:new 0 0 100 63.7;" xml:space="preserve">
<style type="text/css">
	.st0{opacity:0.81;fill:url(#SVGID_1_);}
	.st1{fill:#231F20;stroke:#231F20;stroke-width:0.5;stroke-miterlimit:10;}
</style>
<radialGradient id="SVGID_1_" cx="79.1541" cy="-60.6535" r="38.1294" gradientTransform="matrix(1.1039 0 0 1.0879 -37.3794 97.8186)" gradientUnits="userSpaceOnUse">
	<stop  offset="0.5744" style="stop-color:#151011;stop-opacity:0"/>
	<stop  offset="0.7977" style="stop-color:#151011;stop-opacity:0.6512"/>
	<stop  offset="1" style="stop-color:#151011;stop-opacity:0.95"/>
</radialGradient>
<rect class="st0" width="100" height="63.7"/>
<g>
	<g>
		<g>
			<g>
				<path class="st1" d="M8,29c0-2-1-5,0-5c4-3,11-7,15-3c1,2-1,5-4,6c1,1,2,1,3,1c3,3-2,7-4,8c-3,1-6,3-10,3C8,36,8,32,8,29L8,29z
					 M13,34c2-1,4-1,3-4c-1-1-3,0-4,1C12,32,12,33,13,34L13,34z M13,28c1-1,5-2,4-4C16,23,13,26,13,28L13,28z"/>
				<path class="st1" d="M24,28c1-3,2-6,2-9c4,0,8,0,12,0c0,2,2,2,3,4c1,4-5,3-7,5c0,1,2,1,3,1c1,1,0,3-1,4c0,1,3,2,1,3s-3-2-5-1
					c0-2-2-4-3-4c-2,1-4,2-5,4C24,33,24,30,24,28L24,28z M29,23c0,1-1,1-1,2c-1,2,1,1,2,1c2-2,5,0,4-4C32,23,30,21,29,23L29,23z"/>
				<path class="st1" d="M46,22c3,0,5,1,8,2c-2,4-2,8-2,13c-1,1-3,3-5,2c-1-1,1-4-1-4s-3-2-5-1c-1,1-1,2-3,2C40,31,42,26,46,22
					L46,22z M47,28c-1,1-3,2-2,3c1,0,2,0,3,0C48,30,48,29,47,28L47,28z"/>
				<path class="st1" d="M55,31c1-3,5-8,6-4c2,5-2,9-4,14c-1,0-4,0-5,0C51,38,56,35,55,31L55,31z"/>
				<path class="st1" d="M60,40c-1-2,1-4,1-6c1-2,1-5,3-6c5-2,5,3,6,6c1-2,1-4,1-6c1-1,3,1,3,2c0,5,0,15-8,14c1-2-1-5-1-7
					c-1,2-2,4-2,6c-1,0-2,0-3-1C60,41,60,41,60,40L60,40z"/>
				<path class="st1" d="M74,39c2,1,6,4,8,1c0-1,0-2,0-2c-2-1-6,0-6-1c-3-6,5-10,11-10c1,0,1-2,3-2c-2,2-2,5-4,7c-3,2,0-1-1-1
					s-3-1-4,1c0,1,0,2,0,2c3,2,8-1,8,4c0,1-1,1-1,2c-2,3-7,5-10,4c-1,0-4-1-5-3C74,40,72,39,74,39L74,39z"/>
				<path class="st1" d="M94,27c0-1,1-1,1-1c0,4-3,7-2,11c-1,0-2,2-4,1C91,34,87,27,94,27L94,27z M93,38c-1,1,3,3-4,4
					C89,39,91,39,93,38L93,38z"/>
			</g>
		</g>
	</g>
</g>
</svg>
